<svg xmlns="http://www.w3.org/2000/svg" xmlns:xlink="http://www.w3.org/1999/xlink" viewBox="0 0 42 60" preserveAspectRatio="xMidYMid meet"><defs><path id="a" d="M6.6.8h21.25L41.4 14.3v38.9a6 6 0 01-6 6H6.6a6 6 0 01-6-6V6.8a6 6 0 016-6z"/></defs><g fill="none" fill-rule="evenodd"><mask id="b" fill="#fff"><use xlink:href="#a"/></mask><path stroke="#666" stroke-width="1.5" d="M40.65 14.6L27.55 1.56H6.6A5.25 5.25 0 001.35 6.8v46.4c0 2.9 2.35 5.25 5.25 5.25h28.8c2.9 0 5.25-2.35 5.25-5.25V14.6z"/><path fill="#FFF" stroke="#666" stroke-width="1.5" d="M27.63 1.55h-.03l-.22-.22.25.1v.12zm0 .03l-.1 11.87v.01c0 .7.56 1.25 1.25 1.25h11.87v-.11L27.63 1.58zM40.76 14.7h.07l.04.1-.1-.1z" mask="url(#b)"/><text fill="#E60000" style="font:700 13px Arial"><tspan x="5.13" y="35">XL</tspan><tspan x="20.23" y="35">SX</tspan></text></g></svg>