<svg xmlns="http://www.w3.org/2000/svg" viewBox="0 0 200 200" preserveAspectRatio="xMidYMid meet"><defs><clipPath id="a"><path d="M200 100a100 100 0 11-2.19-20.79l-29.34 6.24A70 70 0 10170 100z"/></clipPath><filter id="b" x="0" y="0"><feGaussianBlur in="SourceGraphic" stdDeviation="6"/></filter><path id="c" fill="#e60000" d="M250 100a150 150 0 01-3.28 31.19L100 100z"/></defs><g clip-path="url(#a)"><g filter="url(#b)" transform="rotate(-10 100 100)"><use fill-opacity="0" href="#c"/><use fill-opacity=".03" href="#c" transform="rotate(12 100 100)"/><use fill-opacity=".07" href="#c" transform="rotate(24 100 100)"/><use fill-opacity=".1" href="#c" transform="rotate(36 100 100)"/><use fill-opacity=".14" href="#c" transform="rotate(48 100 100)"/><use fill-opacity=".17" href="#c" transform="rotate(60 100 100)"/><use fill-opacity=".2" href="#c" transform="rotate(72 100 100)"/><use fill-opacity=".24" href="#c" transform="rotate(84 100 100)"/><use fill-opacity=".28" href="#c" transform="rotate(96 100 100)"/><use fill-opacity=".31" href="#c" transform="rotate(108 100 100)"/><use fill-opacity=".34" href="#c" transform="rotate(120 100 100)"/><use fill-opacity=".38" href="#c" transform="rotate(132 100 100)"/><use fill-opacity=".41" href="#c" transform="rotate(144 100 100)"/><use fill-opacity=".45" href="#c" transform="rotate(156 100 100)"/><use fill-opacity=".48" href="#c" transform="rotate(168 100 100)"/><use fill-opacity=".52" href="#c" transform="rotate(180 100 100)"/><use fill-opacity=".55" href="#c" transform="rotate(192 100 100)"/><use fill-opacity=".59" href="#c" transform="rotate(204 100 100)"/><use fill-opacity=".62" href="#c" transform="rotate(216 100 100)"/><use fill-opacity=".66" href="#c" transform="rotate(228 100 100)"/><use fill-opacity=".69" href="#c" transform="rotate(240 100 100)"/><use fill-opacity=".7" href="#c" transform="rotate(252 100 100)"/><use fill-opacity=".72" href="#c" transform="rotate(264 100 100)"/><use fill-opacity=".76" href="#c" transform="rotate(276 100 100)"/><use fill-opacity=".79" href="#c" transform="rotate(288 100 100)"/><use fill-opacity=".83" href="#c" transform="rotate(300 100 100)"/><use fill-opacity=".86" href="#c" transform="rotate(312 100 100)"/><use fill-opacity=".93" href="#c" transform="rotate(324 100 100)"/><use fill-opacity=".97" href="#c" transform="rotate(336 100 100)"/><use href="#c" transform="rotate(348 100 100)"/></g></g></svg>