<svg xmlns="http://www.w3.org/2000/svg" viewBox="0 0 256 256" preserveAspectRatio="xMidYMid meet"><path fill="#ff8c2d" d="M0 46.48c0-8.7 7.17-15.76 16-15.76h110.72c8.83 0 16 7.06 16 15.76 0 0 2.08 24.68 16 25.99H0z"/><path fill="#fff" d="M26.18 59.91h122.51v49.38H26.18z"/><path fill="#ffba55" d="M128 72.47l.54-9.22c1.96-3.97 5.62-9.62 13.16-11.26H240c8.83 0 16 6.8 16 15.5v142.03c0 8.7-7.17 15.76-16 15.76H16c-8.83 0-16-7.06-16-15.76V67.5v4.98z"/><path fill-opacity=".24" d="M128 93.39l-46.23 43.99H92.7c0 .08-.04.14-.04.22v43.75a5.1 5.1 0 005.12 5.12h18.35v-36.85h22.74v36.85h18.81a5.1 5.1 0 005.12-5.12V137.6c0-.08-.04-.14-.04-.22h11.47l-13.08-12.44c0-.07.04-.12.04-.2v-22.67a2.55 2.55 0 00-2.56-2.56h-6.2a2.55 2.55 0 00-2.56 2.56v12.13L128 93.39z"/></svg>