<svg xmlns="http://www.w3.org/2000/svg" viewBox="0 0 192 192" preserveAspectRatio="xMidYMid meet"><path fill="none" stroke="#333" stroke-linecap="round" stroke-miterlimit="10" stroke-width="8" d="M81.59 148H46.4a6.3 6.3 0 01-5.61-2.9 6.14 6.14 0 01.14-6.26l17.64-33.34a5.88 5.88 0 0110.68 0l17.83 33.33a6.13 6.13 0 01.14 6.26 6.3 6.3 0 01-5.63 2.91zM64 84a20 20 0 1120-20 20 20 0 01-20 20z"/><path fill="none" stroke="#333" stroke-linecap="round" stroke-linejoin="round" stroke-width="8" d="M128 101l23.5 18.8-9.4 28.2h-28.2l-9.4-28.2L128 101z"/><rect width="40" height="40" x="108" y="44" fill="none" stroke="#333" stroke-linecap="round" stroke-miterlimit="10" stroke-width="8" rx="8.89" ry="8.89"/><rect width="152" height="152" x="20" y="20" fill="none" stroke="#333" stroke-linecap="round" stroke-linejoin="round" stroke-width="8" rx="20" ry="20"/></svg>