<svg xmlns="http://www.w3.org/2000/svg" viewBox="0 0 192 192" preserveAspectRatio="xMidYMid meet"><path fill="none" stroke="#333" stroke-linecap="round" stroke-linejoin="round" stroke-width="8" d="M143.17 74.56l-2.23-.65a59.39 59.39 0 00-18.82-1.8 60 60 0 00-18.52 4.1 51.29 51.29 0 00-14.84 9 39.29 39.29 0 00-9.68 12.56 30.77 30.77 0 00-3 14.83 30.28 30.28 0 004.46 14.4 38 38 0 0010.88 11.29 49.82 49.82 0 0015.65 7.1 59.3 59.3 0 0018.82 1.8h.61a52.84 52.84 0 006.7 3.88 50.8 50.8 0 008.81 3.31 48.65 48.65 0 0010.75 1.62 50.85 50.85 0 0012.51-1s-13.13-7.62-13.5-15.49a48.21 48.21 0 008.63-6.44 40.36 40.36 0 006.5-7.82 33.61 33.61 0 004-8.88 30 30 0 00-3.42-24 36.19 36.19 0 00-6.63-7.92 62.1 62.1 0 00-17.67-9.82"/><path fill="none" stroke="#333" stroke-linecap="round" stroke-linejoin="round" stroke-width="8" d="M141.45 74.06l.35-1.89c1.55-9.37-4.76-18.3-4.76-18.3a48.52 48.52 0 00-13.92-14.39 64 64 0 00-20-9A76.28 76.28 0 0079 28.15a77.06 77.06 0 00-23.7 5.22 65.68 65.68 0 00-19 11.44 50.1 50.1 0 00-12.39 16A39.1 39.1 0 0020 79.72a37.72 37.72 0 002.6 12 41.64 41.64 0 006.2 10.63 49.86 49.86 0 009.27 8.89c3.54 2.64 10.93 5.84 15.23 7.71-5.58 13.1-18.62 20.82-18.62 20.82a65.53 65.53 0 0016-.64 63.26 63.26 0 0011-2.87s4.41-1.57 17-8.52l1.63-.89"/></svg>