<svg xmlns="http://www.w3.org/2000/svg" viewBox="0 0 192 192" preserveAspectRatio="xMidYMid meet"><circle cx="68" cy="100" r="12" fill="none" stroke="#333" stroke-linecap="round" stroke-linejoin="round" stroke-width="8"/><circle cx="124" cy="100" r="12" fill="none" stroke="#333" stroke-linecap="round" stroke-linejoin="round" stroke-width="8"/><circle cx="96" cy="28" r="8" fill="none" stroke="#333" stroke-linecap="round" stroke-linejoin="round" stroke-width="8"/><path fill="none" stroke="#333" stroke-linecap="round" stroke-linejoin="round" stroke-width="8" d="M96 134v22m0-120v16m-20 80.53v21.99m40-22.01v22M136 128a136.4 136.4 0 01-40 6 136.4 136.4 0 01-40-6v22a136.33 136.33 0 0080 0z"/><rect width="120" height="104" x="36" y="68" fill="none" stroke="#333" stroke-linecap="round" stroke-linejoin="round" stroke-width="8" rx="12" ry="12"/><path fill="none" stroke="#333" stroke-linecap="round" stroke-linejoin="round" stroke-width="8" d="M36 100h-4a12 12 0 00-12 12v24a12 12 0 0012 12h4m96-80v-4a12 12 0 00-12-12H72a12 12 0 00-12 12v4m96 32h4a12 12 0 0112 12v24a12 12 0 01-12 12h-4"/></svg>