<svg xmlns="http://www.w3.org/2000/svg" viewBox="0 0 192 192" preserveAspectRatio="xMidYMid meet"><g fill="none" stroke="#333" stroke-width="8"><circle cx="96" cy="153.68" r="17.83" stroke-miterlimit="10"/><circle cx="146.17" cy="66.78" r="17.83" stroke-miterlimit="10" transform="rotate(-30 146.17 66.78)"/><circle cx="45.83" cy="66.78" r="17.83" stroke-miterlimit="10" transform="matrix(.5 -.87 .87 .5 -34.92 73.08)"/><path stroke-linecap="round" stroke-linejoin="round" d="M113.59 151a58 58 0 0027.51-18.87m-90.21-.05a58 58 0 0027.49 18.87M39.39 83.39A58.05 58.05 0 0042 116.65M87.09 38.5A57.71 57.71 0 0057 52.91m78-.01a57.71 57.71 0 00-30.09-14.4M150 116.65a58.05 58.05 0 002.58-33.25"/></g></svg>