<svg xmlns="http://www.w3.org/2000/svg" viewBox="0 0 192 192" preserveAspectRatio="xMidYMid meet"><path fill="none" stroke="#333" stroke-linecap="round" stroke-linejoin="round" stroke-width="8" d="M144.34 37.35A76 76 0 1196 20a75.85 75.85 0 0148.34 17.35"/><path fill="none" stroke="#333" stroke-linecap="round" stroke-linejoin="round" stroke-width="8" d="M121.3 63a101.56 101.56 0 0112.49 13.6 103.38 103.38 0 0120.91 67.6M49.58 35.82a109.87 109.87 0 0156.09 15.55m-19.8 94.07A106.41 106.41 0 0094.22 172m12.9-107.9A101.18 101.18 0 0084.38 126m58.02-90.19a112 112 0 00-21.64 14.38m2.69 6.29a113.14 113.14 0 0141.69 7.94M55.07 82.4a103.25 103.25 0 0149-24.06m-78.18 67.04a108.72 108.72 0 0115.87-28.75m51 44.58a108.93 108.93 0 0049.54 15M52.12 98A107.53 107.53 0 0077 129.76M39.28 45.42A119.76 119.76 0 0044.71 80"/><circle cx="48.06" cy="89.18" r="9.75" fill="none" stroke="#333" stroke-linecap="round" stroke-linejoin="round" stroke-width="8" transform="rotate(-78.06 48.07 89.18)"/><circle cx="84.65" cy="135.77" r="9.75" fill="none" stroke="#333" stroke-linecap="round" stroke-linejoin="round" stroke-width="8" transform="rotate(-78.06 84.66 135.77)"/><circle cx="113.7" cy="56.9" r="9.75" fill="none" stroke="#333" stroke-linecap="round" stroke-linejoin="round" stroke-width="8" transform="rotate(-78.06 113.71 56.9)"/></svg>