<svg xmlns="http://www.w3.org/2000/svg" viewBox="0 0 192 192" preserveAspectRatio="xMidYMid meet"><g fill="none" stroke="#333" stroke-linecap="round" stroke-linejoin="round" stroke-width="8"><path d="M102.24 20.22C124.33 39.9 140 66.54 140 96c0 29.13-16.1 56.17-37.76 75.78M89.76 20.22C67.67 39.9 52 66.54 52 96c0 29.13 16.1 56.17 37.76 75.78M20 96h152m-76 76V20"/><path d="M154.27 47.19C137 59.61 117.8 68 96 68c-21.52 0-40.92-8.44-58.26-20.81m.02 97.62C55 132.39 74.22 124 96 124c21.52 0 40.92 8.44 58.26 20.81"/><circle cx="96" cy="96" r="76"/></g></svg>