<svg xmlns="http://www.w3.org/2000/svg" viewBox="0 0 192 192" preserveAspectRatio="xMidYMid meet"><path fill="none" stroke="#333" stroke-linecap="round" stroke-linejoin="round" stroke-width="8" d="M140 113a12 12 0 1112-12 12 12 0 01-12 12z"/><path fill="none" stroke="#333" stroke-linecap="round" stroke-linejoin="round" stroke-width="8" d="M48 108.5V136a20 20 0 0020 20h0a20 20 0 0020-20V86.92A26 26 0 01113.95 61h.1A26 26 0 01140 86.92v2M39.63 39h-4.26A1.43 1.43 0 0134 37.53v-.06A1.43 1.43 0 0135.37 36h4.26A1.43 1.43 0 0141 37.47v.06A1.43 1.43 0 0139.63 39z"/><path fill="none" stroke="#333" stroke-linecap="round" stroke-linejoin="round" stroke-width="8" d="M63.41 38.06c9.85 1.94 13.41 12.31 11.7 23.18l-4.9 26.86C67.7 103 58.14 108.21 48 108.18S28.31 102.94 25.73 88l-5-26.88C18.92 50.24 22.43 39.88 32.27 38"/><path fill="none" stroke="#333" stroke-linecap="round" stroke-linejoin="round" stroke-width="8" d="M56.37 39h4.26A1.43 1.43 0 0062 37.53v-.06A1.43 1.43 0 0060.63 36h-4.26A1.43 1.43 0 0055 37.47v.06A1.43 1.43 0 0056.37 39zM132 140h16m-40-92a12 12 0 0112-12h40a12 12 0 0112 12v96a12 12 0 01-12 12h-40a12 12 0 01-12-12V76"/></svg>