<svg xmlns="http://www.w3.org/2000/svg" viewBox="0 0 192 192" preserveAspectRatio="xMidYMid meet"><g fill="none" stroke="#333" stroke-linecap="round" stroke-linejoin="round" stroke-width="8"><path d="M160 136a12 12 0 1112-12 12 12 0 01-12 12z"/><path d="M60 116v26a30 30 0 0030 30h0a30 30 0 0030-30V80a20 20 0 0120-20h0a20 20 0 0120 20v32"/><rect width="10" height="4" x="42" y="19.8" rx="1.96" ry="1.96"/><path d="M78.22 22.32C92.55 24.69 102.12 37.53 99.6 51l-7.23 33.25C88.67 102.75 74.74 116 60 116s-28.67-13.25-32.37-31.75L20.37 51c-2.53-13.46 7-26.29 21.37-28.67"/><rect width="10" height="4" x="67.97" y="19.8" rx="1.96" ry="1.96"/></g></svg>