<svg xmlns="http://www.w3.org/2000/svg" viewBox="0 0 192 192" preserveAspectRatio="xMidYMid meet"><g fill="none" stroke="#333" stroke-linejoin="round" stroke-width="8"><path d="M43.21 20h102.37c11.53 0 21 8.94 15.87 21.45C173.2 55 167 65.25 167 65.25s11.11 12.06.32 23.8c2.79 7.85 4.4 14.79-5.84 21.73s-34.54.18-43.42-.91c-11.9 3.8 23.55 61.14-14.19 62.13-.16-.41-4.4 1-3.2-13.88 0-15.53-29.31-50.11-38.9-63.57"/><path stroke-linecap="round" d="M68 20H40a20 20 0 00-20 20v40a20 20 0 0020 20h8a20 20 0 0020-20z"/></g></svg>