<svg xmlns="http://www.w3.org/2000/svg" viewBox="0 0 192 192" preserveAspectRatio="xMidYMid meet"><path fill="none" stroke="#333" stroke-miterlimit="10" stroke-width="8" d="M96 121a4 4 0 01-4-4V39a4 4 0 018 0v78a4 4 0 01-4 4z"/><path fill="none" stroke="#333" stroke-miterlimit="10" stroke-width="8" d="M96 119a2.5 2.5 0 01-2.5-2.5v-77a2.5 2.5 0 015 0v77A2.5 2.5 0 0196 119z"/><path fill="none" stroke="#333" stroke-miterlimit="10" stroke-width="8" d="M96 117a1 1 0 01-1-1V40a1 1 0 012 0v76a1 1 0 01-1 1z"/><circle cx="96" cy="150" r="4" fill="none" stroke="#333" stroke-linecap="round" stroke-linejoin="round" stroke-width="8"/><circle cx="96" cy="150" r="6" fill="none" stroke="#333" stroke-linecap="round" stroke-linejoin="round" stroke-width="8"/><circle cx="96" cy="150" r="2.5" fill="none" stroke="#333" stroke-linecap="round" stroke-linejoin="round" stroke-width="8"/><circle cx="96" cy="150" r="1" fill="none" stroke="#333" stroke-linecap="round" stroke-linejoin="round" stroke-width="8"/></svg>