<svg xmlns="http://www.w3.org/2000/svg" viewBox="0 0 192 192" preserveAspectRatio="xMidYMid meet"><path fill="none" stroke="#333" stroke-linecap="round" stroke-linejoin="round" stroke-width="8" d="M115.81 129.17l12.85-9.7c3.39-1.74 6.88-2.16 9-.87 3.19 2 30 19.88 32.23 21.47s3.29 6.09.13 10.47-17.69 21.69-23.77 21.46-31.39-1-78.61-48.47S20.13 51 20 45s17.62-20.12 22.1-23.16 9-1.86 10.59.31a2498.8 2498.8 0 0121.14 32.23c1.31 2.09.79 5.56-1 8.88s-9.33 16-9.33 16 5.08 8.87 22.5 26.41c8.3 8.5 29.81 23.5 29.81 23.5z"/></svg>