<svg xmlns="http://www.w3.org/2000/svg" viewBox="0 0 192 192" preserveAspectRatio="xMidYMid meet"><g fill="none" stroke="#333" stroke-linejoin="round" stroke-width="8"><path d="M43.21 172h102.37c11.53 0 21-8.94 15.87-21.45 11.75-13.55 5.55-23.8 5.55-23.8s11.11-12.06.32-23.8c2.79-7.85 4.4-14.79-5.84-21.73S126.9 81 118 82.13C106.12 78.33 141.58 21 103.84 20c-.16.41-4.4-1-3.2 13.88 0 15.53-29.32 50.12-38.91 63.58"/><path stroke-linecap="round" d="M68 172H40a20 20 0 01-20-20v-40a20 20 0 0120-20h8a20 20 0 0120 20z"/></g></svg>