<svg xmlns="http://www.w3.org/2000/svg" viewBox="0 0 192 192" preserveAspectRatio="xMidYMid meet"><g fill="none" stroke="#333" stroke-linecap="round" stroke-linejoin="round" stroke-width="8"><path d="M135.45 141l17.11 9.92 19.06-32.2-19.12-11.09a56.7 56.7 0 00.21-22.06L172 74.63l-18.75-32.38-19.14 10.85a58 58 0 00-19.32-11.18V20H77.08v21.85a57.93 57.93 0 00-19.17 10.94L39.1 41.88 20 74.08l19 11A56.67 56.67 0 0039 107l-19 10.8 18.75 32.38L58 139.32a57.94 57.94 0 0019.12 10.89V172h37.71v-21.86a40.67 40.67 0 0020.62-9.14z"/><path d="M123.94 94.18a28 28 0 11-26.12-26.12 28 28 0 0126.12 26.12z"/></g></svg>