<svg xmlns="http://www.w3.org/2000/svg" viewBox="0 0 192 192" preserveAspectRatio="xMidYMid meet"><g fill="none" stroke="#333" stroke-linejoin="round" stroke-width="8"><path stroke-linecap="round" d="M60 156h16m32-16h24m-24-23v43a12 12 0 01-12 12H40a12 12 0 01-12-12V48a12 12 0 0112-12h56a12 12 0 0112 12v20.1"/><path d="M84 36v-4a12 12 0 0112-12h56a12 12 0 0112 12v112a12 12 0 01-12 12h-44"/></g><path fill="none" stroke="#333" stroke-linecap="round" stroke-linejoin="round" stroke-width="8" d="M137.9 92.07h-84m27.83 25.67l-28-26 28-26"/></svg>