<svg xmlns="http://www.w3.org/2000/svg" viewBox="0 0 192 192" preserveAspectRatio="xMidYMid meet"><g fill="none" stroke="#333" stroke-linejoin="round" stroke-width="8"><path d="M88 164h56a12 12 0 0012-12V56a12 12 0 00-3.52-8.48l-16-16h0A12 12 0 00128 28H88"/><path d="M115.85 84H130a6 6 0 016 6v48a6 6 0 01-6 6h-13.71"/><path stroke-linecap="round" d="M116 56h0a12 12 0 00-3.52-8.48l-16-16h0A12 12 0 0088 28H48a12 12 0 00-12 12v112a12 12 0 0012 12h56a12 12 0 0012-12z"/><path stroke-linecap="round" d="M96 138a6 6 0 01-6 6H62a6 6 0 01-6-6V90a6 6 0 016-6h28a6 6 0 016 6z"/></g></svg>