<svg xmlns="http://www.w3.org/2000/svg" viewBox="0 0 192 192" preserveAspectRatio="xMidYMid meet"><path fill="#333" d="M157.06 88.69v-.18A22.64 22.64 0 00148.65 71c.13-.57.26-1.13.37-1.7a52 52 0 001-10v-3.87a31.38 31.38 0 00-29.18-31.32 4 4 0 00-1-.12H62.16a9.62 9.62 0 00-9.54 8.11L34 145.91a6.94 6.94 0 007 8.09h27.17l-1.71 9.95A3.53 3.53 0 0070 168h21.75a5.59 5.59 0 005.58-4.65l4.67-28.57a6 6 0 012-3.06 5.43 5.43 0 013.05-1.06c5.78.09 5-.09 10.75 0h1.11c.37 0 .54.09.82.08h.27v-.08c17.82-.67 37.09-17.85 37.09-41.16l-.03-.81zM82.17 101a3.33 3.33 0 00-.61 0h-.16a9.72 9.72 0 00-5.4 2.17 11.34 11.34 0 00-3.73 5.78c0 .13-.06.26-.08.39l-2.35 14-4 22.71H42.06L60.53 33.38A1.64 1.64 0 0162.15 32h57a4 4 0 00.54.06A23.38 23.38 0 01142 55.42v1.09a58.3 58.3 0 01-.42 8.75c-4.16 21.84-22.56 35.52-38 35.73H82.17z"/></svg>