<svg xmlns="http://www.w3.org/2000/svg" viewBox="0 0 192 192" preserveAspectRatio="xMidYMid meet"><path fill="#333" d="M174.2 62.6a20.6 20.6 0 00-17.9-18.1 468.12 468.12 0 00-120.6 0 20.5 20.5 0 00-17.8 18.1 299.31 299.31 0 000 66.9 20.5 20.5 0 0017.8 18.1 468.8 468.8 0 0060.4 3.9 467.26 467.26 0 0060.3-3.9 20.5 20.5 0 0017.8-18.1 288.13 288.13 0 001.9-33.5 286.42 286.42 0 00-1.9-33.4zm-54.9 36.6l-32.8 23.1a2.89 2.89 0 01-4-.7 2.62 2.62 0 01-.5-1.7V72a2.88 2.88 0 012.8-2.9 3.37 3.37 0 011.7.5l32.8 23.1a3.89 3.89 0 01.9 5.5 3 3 0 01-.9 1z"/></svg>