<svg xmlns="http://www.w3.org/2000/svg" viewBox="0 0 192 192" preserveAspectRatio="xMidYMid meet"><path fill="#333" d="M164.83 53.31a58.63 58.63 0 01-16.18 4.46 28.73 28.73 0 0012.45-15.66A55.47 55.47 0 01143.15 49 28.29 28.29 0 0095 74.78a80.24 80.24 0 01-58.3-29.57A28.34 28.34 0 0045.53 83a27.38 27.38 0 01-12.76-3.53v.31a28.22 28.22 0 0022.62 27.7 29.42 29.42 0 01-12.76.52A28.27 28.27 0 0069 127.59a57.06 57.06 0 01-41.81 11.62A80.15 80.15 0 0070.43 152c52 0 80.4-43.05 80.4-80.4 0-1.24 0-2.49-.1-3.63a54.09 54.09 0 0014.1-14.66z"/></svg>