<svg xmlns="http://www.w3.org/2000/svg" viewBox="0 0 192 192" preserveAspectRatio="xMidYMid meet"><g fill="none" stroke="#333" stroke-linecap="round" stroke-linejoin="round" stroke-width="8"><path d="M18.83 76.8c-4.75-2.4-4.75-6.21 0-8.61L87.51 29.8c4.75-2.4 12.44-2.4 17.19 0l68.47 36.58c4.75 2.4 4.75 6.21 0 8.61l-68.38 39.53c-4.75 2.4-12.42 2.4-17.16 0z"/><path d="M148 89.56v44.14c0 4.29-.7 4.75-4.59 8.22S119.91 164 96 164s-44.11-18.74-47.71-22.08S44 138 44 133.7V93.45c0-1.58 1.09-3.29 3.49-4.5l36-20.61"/></g></svg>