<svg xmlns="http://www.w3.org/2000/svg" viewBox="0 0 192 192" preserveAspectRatio="xMidYMid meet"><g fill="none" stroke="#333" stroke-width="8"><path stroke-linejoin="round" d="M76 108H60.24l-22.36 22.35V108H32a12 12 0 01-12-12V48a12 12 0 0112-12h72a12 12 0 0112 12v28"/><path stroke-linecap="round" stroke-linejoin="round" d="M131.76 148l22.35 22.35V148H160a12 12 0 0012-12V88a12 12 0 00-12-12H88a12 12 0 00-12 12v48a12 12 0 0012 12z"/><path stroke-linecap="round" stroke-miterlimit="10" d="M148 100h-48m48 24h-48"/></g></svg>