<svg xmlns="http://www.w3.org/2000/svg" viewBox="0 0 192 192" preserveAspectRatio="xMidYMid meet"><path fill="none" stroke="#333" stroke-linecap="round" stroke-linejoin="round" stroke-width="8" d="M101.58 137.29l54.1-82.73c1.17-1.74 2.09-3.24 2.09-5.28a7.74 7.74 0 00-7.77-7.74c-3.26 0-5.31 2.09-7.18 4.86l-53 67.21-13.42 17-32.66-28.4h0c-1.86-1.87-4.12-3.37-6.94-3.37a8.84 8.84 0 00-8.8 8.86 9.3 9.3 0 001.88 6l.81 1 40 44.21c2.14 2.52 4.66 5.15 8.29 5.15 4 0 6.6-3.14 8.73-6.18l13.91-20.53"/></svg>