<svg xmlns="http://www.w3.org/2000/svg" viewBox="0 0 192 192" preserveAspectRatio="xMidYMid meet"><g fill="none" stroke="#333" stroke-width="8"><path stroke-linecap="round" stroke-linejoin="round" d="M84 156h24"/><ellipse cx="48" cy="135.5" stroke-miterlimit="10" rx="36" ry="12.5"/><path stroke-linecap="round" stroke-linejoin="round" d="M84 135.5v23.6c-4.7 5.5-19 8.39-36 8.39s-31.3-4-36-9.5V135"/><path stroke-linejoin="round" d="M20 163v16c4.7 5.5 19 9 36 9s31.3-2.5 36-8v-20s0-4-8-4"/><path stroke-linejoin="round" d="M52 123.08V32a12 12 0 0112-12h64a12 12 0 0112 12v128a12 12 0 01-12 12H92"/><path stroke-linecap="round" stroke-linejoin="round" d="M95.99 64v48M114 82L95.99 64 78 82"/></g></svg>