<svg xmlns="http://www.w3.org/2000/svg" viewBox="0 0 192 192" preserveAspectRatio="xMidYMid meet"><g fill="none" stroke="#333" stroke-linejoin="round" stroke-width="8"><path stroke-linecap="round" d="M77.59 129.57l12.77-5.2c3.19-.69 6.17-.27 7.62 1.27 2.2 2.34 20.32 23.13 21.84 24.95s1.37 5.78-2.22 8.72-19.43 14.09-24.39 12.55-25.71-7.74-54.14-57.63S16 43.51 17.2 38.49s19-12.77 23.39-14.31 7.87.45 8.67 2.6c.91 2.45 9.39 28.46 10.29 31.42.62 2-.58 4.79-2.83 7.14S45.45 76.6 45.45 76.6s2.26 8.45 12.77 26.87c2.32 4.08 19.37 26.1 19.37 26.1zm83.19-75.87l-1.49-.43a39.67 39.67 0 00-12.55-1.2 40.09 40.09 0 00-12.34 2.73 34.21 34.21 0 00-9.89 6 26.14 26.14 0 00-6.51 8.33 20.43 20.43 0 00-2 9.87 20.11 20.11 0 003 9.56 25.3 25.3 0 007.25 7.51 33.25 33.25 0 0010.43 4.72 39.62 39.62 0 0012.54 1.2h.41a35.24 35.24 0 004.47 2.58 33.92 33.92 0 005.88 2.2 32.5 32.5 0 007.17 1.11 34 34 0 008.34-.69s-8.76-5.07-9-10.3a32.14 32.14 0 005.76-4.28 26.86 26.86 0 004.33-5.2 22.34 22.34 0 002.65-5.91 19.92 19.92 0 00-2.28-16 24.09 24.09 0 00-4.42-5.27 41.42 41.42 0 00-11.78-6.53"/><path d="M115.42 86.94C107 91.61 104 92.66 104 92.66a42.31 42.31 0 01-7.38 1.93 43.81 43.81 0 01-10.75.41s8.73-5.18 12.47-14c-2.88-1.26-7.83-3.41-10.2-5.18a33.43 33.43 0 01-6.21-6 28 28 0 01-4.15-7.14A25.36 25.36 0 0176 54.71 26.29 26.29 0 0178.63 42a33.62 33.62 0 018.3-10.74 44 44 0 0112.72-7.68 51.53 51.53 0 0115.88-3.51 51 51 0 0116.13 1.54 42.8 42.8 0 0113.41 6.07 32.54 32.54 0 019.32 9.66s4.1 6 3.19 12.28"/></g></svg>