<svg xmlns="http://www.w3.org/2000/svg" viewBox="0 0 192 192" preserveAspectRatio="xMidYMid meet"><path fill="none" stroke="#333" stroke-linecap="round" stroke-linejoin="round" stroke-width="8" d="M118.35 124s22.44.86 31.19-3a38.28 38.28 0 0022.28-31c1.31-13.09-4.66-27.47-15.95-34.43-5.61-3.46-12.16-4.85-18.71-5.42a77.58 77.58 0 00-11.19.51 43.8 43.8 0 00-37.91-30.54 42.57 42.57 0 00-35.72 15.1 44.13 44.13 0 00-8.91 17.46c-.43 1.69-1.28 6.43-1.28 6.43a33.47 33.47 0 00-11.87 6.79c-10.51 9.4-13.07 25.46-7.19 38.1 5.34 11.48 16.81 20 29.57 20h21"/><path fill="none" stroke="#333" stroke-linecap="round" stroke-linejoin="round" stroke-width="8" d="M96 152V68M70 96l26-28 26 28"/></svg>