<svg xmlns="http://www.w3.org/2000/svg" viewBox="0 0 192 192" preserveAspectRatio="xMidYMid meet"><path fill="none" stroke="#333" stroke-linecap="round" stroke-miterlimit="10" stroke-width="8" d="M132 60H44m88 24H44m88 24H44"/><path fill="none" stroke="#333" stroke-linecap="round" stroke-linejoin="round" stroke-width="8" d="M44 164v-32H32a12 12 0 01-12-12V48a12 12 0 0112-12h110a12 12 0 0112 12v72a12 12 0 01-12 12H78z"/><path fill="none" stroke="#333" stroke-linejoin="round" stroke-width="8" d="M38 36v-4a12 12 0 0112-12h110a12 12 0 0112 12v72a12 12 0 01-12 12h-6"/></svg>