<svg xmlns="http://www.w3.org/2000/svg" viewBox="0 0 191 89" preserveAspectRatio="xMidYMid meet"><g fill="none" fill-rule="evenodd"><g stroke="#333" stroke-linejoin="round" stroke-width="2"><path fill="#FFF" d="M54.42 17.52L34.82 6.21 5.85 13.97a6 6 0 00-4.25 7.35l16.57 61.82a6 6 0 007.35 4.24l38.63-10.35a6 6 0 004.25-7.35L54.42 17.52z"/><path d="M34.86 6.32l4.1 15.34 15.46-4.14"/><path stroke-linecap="round" d="M46.97 34.58l-27.05 7.25m30.16 4.34l-27.05 7.25m30.15 4.34l-27.04 7.25"/></g><path fill="#FFF" stroke="#333" stroke-linejoin="round" stroke-width="2" d="M98.98 16.82L81.65 2.27 51.76 4.9a6 6 0 00-5.45 6.5l5.58 63.75a6 6 0 006.5 5.46l39.85-3.49a6 6 0 005.45-6.5l-4.7-53.8z"/><path stroke="#333" stroke-linejoin="round" stroke-width="2" d="M81.66 2.4l1.38 15.81 15.94-1.4"/><g fill-rule="nonzero"><path fill="#333" d="M53.25 33.37l7.97-.7.18 2-7.97.69zm10.46-.92l7.97-.7.18 2-7.97.7zm-9.85 7.89l7.97-.7.18 2-7.97.7zm10.46-.92l7.97-.7.18 2-7.97.7zm-9.85 7.89l7.97-.7.18 2-7.97.7zm10.46-.91l7.97-.7.18 2-7.97.69zm20.95 4.19a10 10 0 10-1.75-19.93 10 10 0 001.75 19.93z"/><path fill="#FFF" d="M85 40.63l-.87-9.97c3.32-.29 5.9.5 7.74 2.34a10.6 10.6 0 013.1 6.75l-9.96.88z"/><path fill="#333" d="M85.91 39.52l-.87-9.96c3.32-.3 5.9.49 7.73 2.33a10.6 10.6 0 013.1 6.76l-9.96.87z"/></g><g stroke="#333" stroke-linejoin="round"><path fill="#FFF" stroke-width="2" d="M145.23 21.35L130.7 4l-29.9-2.6a6 6 0 00-6.5 5.45l-5.58 63.76a6 6 0 005.46 6.5l39.84 3.48a6 6 0 006.5-5.45l4.71-53.8z"/><path stroke-linecap="round" d="M103.3 44.68l8.46-11.66 8.23 9.81 3.57-2.99 7.49 8.92m-5.38-14.65a2.3 2.3 0 10.4-4.58 2.3 2.3 0 00-.4 4.58zm-19.01-10.63l24.9 2.18c.83.07 1.44.8 1.37 1.62l-2.18 24.91a1.5 1.5 0 01-1.63 1.36l-24.9-2.18a1.5 1.5 0 01-1.36-1.62l2.17-24.9a1.5 1.5 0 011.63-1.37z"/><path stroke-width="2" d="M130.76 3.14l-1.38 15.82 15.94 1.39"/></g><path fill="#FFF" stroke="#333" stroke-linejoin="round" stroke-width="2" d="M189.3 30.98L178 11.38l-28.98-7.76a6 6 0 00-7.35 4.24L125.1 69.68a6 6 0 004.25 7.35l38.63 10.35a6 6 0 007.35-4.24l13.98-52.16z"/><path stroke="#333" stroke-linejoin="round" stroke-width="2" d="M177.96 11.5l-4.1 15.34 15.45 4.14"/><path fill="#333" d="M162.43 47.32c.45.61.98 1.2 1.59 1.8 1 .15 1.9.34 2.73.56 1.54.42 3.45 1.12 3.77 2.22.1.27.13.73-.27 1.21l-.1.07v.03c-.18.4-.65.76-1.87.43-1.47-.4-3.53-1.66-5.19-3.19-3.29-.5-6.84-.7-9.53-.5-3.45 3.41-5.8 4.9-7.18 4.53a1.32 1.32 0 01-.6-.33l-.48-.43c-.06-.04-.07-.09-.1-.15-.09-.14-.11-.42.08-.86.51-1 2.23-2.44 5.48-3.17.22-.06.43.07.5.28l.02.1a61.62 61.62 0 003.67-3.87c1.6-1.79 2.94-3.6 4-5.38-.06-2.7.4-5.35 1.23-6.75.31-.54.75-.79 1.2-.66l.52.13c.34.1.59.28.7.56.2.4.13.92-.2 1.62-.05.06-.09.13-.15.16 0 .08 0 .12-.02.2l-.19.68a26.9 26.9 0 01-1.5 4.33c.16 2.63.83 4.9 1.89 6.38zm-15.79 5.9c.78-.14 2.04-.86 4.13-2.79-2.08.87-3.57 2.1-4.13 2.8zm14.83-18.71c-.4.58-.7 1.69-.86 3.02.17-.34.3-.68.43-.96.16-.38.31-.69.43-.95l.14-.16c-.02-.03 0-.07-.01-.13.08-.42.01-.7-.08-.9-.01.04-.04.06-.05.08zm-6.93 14.44c2.24-.26 4.67-.3 7.04-.11-.18-.25-.37-.47-.53-.7-.86-1.3-1.5-2.95-1.83-4.84a30.75 30.75 0 01-3.13 4.02c-.52.55-1.03 1.1-1.55 1.63zm14.96 3.62c-.08-.15-.56-.75-3.07-1.42a9.49 9.49 0 002.68 1.41c.2.06.32.09.42.09 0-.03 0-.05-.03-.08z"/></g></svg>