<svg xmlns="http://www.w3.org/2000/svg" viewBox="0 0 192 192" preserveAspectRatio="xMidYMid meet"><path fill="#333" d="M82.27 47.43h86.53c10.05 0 18.2 8.7 18.2 19.43v77.71c0 10.73-8.15 19.43-18.2 19.43H23.2C13.15 164 5 155.3 5 144.57V47.43C5 36.7 13.15 28 23.2 28h44.36c1.51 0 2.93.8 3.77 2.14l10.94 17.29zm95.63 38.86H98.27a4.5 4.5 0 01-3.77-2.14L65.14 37.7H23.2c-5.03 0-9.1 4.35-9.1 9.72v97.14c0 5.37 4.07 9.72 9.1 9.72h145.6c5.03 0 9.1-4.35 9.1-9.72V86.3zm-77.2-9.72h77.2v-9.71c0-5.37-4.07-9.72-9.1-9.72H88.4l12.3 19.43zm-31.2 46.64h53.18c1.39 0 2.5-2.17 2.5-4.85 0-2.69-1.11-4.86-2.5-4.86H69.51c-1.39 0-2.51 2.17-2.51 4.86 0 2.68 1.12 4.85 2.5 4.85zM123.74 112l-21.77 21.78c-.86.86-.12 3 1.66 4.77 1.77 1.78 3.91 2.52 4.77 1.66l21.78-21.78-6.44-6.43zm-21.67-9.01l21.77 21.78 6.44-6.44-21.78-21.77c-.86-.86-3-.12-4.77 1.66-1.19 1.18-1.74 2.77-1.66 4.77z"/></svg>