<svg xmlns="http://www.w3.org/2000/svg" viewBox="0 0 192 192" preserveAspectRatio="xMidYMid meet"><path fill="#333" d="M135.68 47.43A30 30 0 11173.3 91.9v52.67c0 10.73-7.66 19.43-17.13 19.43H19.13C9.67 164 2 155.3 2 144.57V47.43C2 36.7 9.67 28 19.13 28h41.75c1.43 0 2.76.8 3.55 2.14l10.3 17.29h60.95zm29.05 47.2a29.9 29.9 0 01-25.87-8.34H89.79c-1.42 0-2.76-.8-3.55-2.14L58.6 37.7H19.13c-4.73 0-8.57 4.35-8.57 9.72v97.14c0 5.37 3.84 9.72 8.57 9.72h137.03c4.73 0 8.57-4.35 8.57-9.72V94.63zm-33.7-37.49H80.5l11.56 19.43h40.25a29.9 29.9 0 01-1.27-19.43zM160 87a22 22 0 100-44 22 22 0 000 44zm-15.75-17h31.5c1.24 0 2.25-2.01 2.25-4.5s-1-4.5-2.25-4.5h-31.5c-1.24 0-2.25 2.01-2.25 4.5s1 4.5 2.25 4.5zM156 49.25v31.5c0 1.24 2.01 2.25 4.5 2.25s4.5-1 4.5-2.25v-31.5c0-1.24-2.01-2.25-4.5-2.25s-4.5 1-4.5 2.25z"/></svg>