<svg xmlns="http://www.w3.org/2000/svg" viewBox="0 0 192 192" preserveAspectRatio="xMidYMid meet"><g fill="none" fill-rule="evenodd"><rect width="120" height="40" x="36" y="119" fill="#333" fill-rule="nonzero" rx="4"/><path stroke="#333" stroke-linejoin="round" stroke-width="8" d="M148 52l-32-32H56a12 12 0 00-12 12v128a12 12 0 0012 12h80a12 12 0 0012-12V52z"/><path stroke="#333" stroke-linecap="round" stroke-linejoin="round" stroke-width="4" d="M65 62h64a6 6 0 016 6v40a6 6 0 01-6 6H65a6 6 0 01-6-6V68a6 6 0 016-6zm68.36 1.89L102.6 95.44a8.35 8.35 0 01-12.03 0L60.65 63.88"/><text fill="#FFF" font-family="Arial-BoldMT, Arial" font-size="24" font-weight="bold" letter-spacing="20"><tspan x="48.67" y="148">MS</tspan> <tspan x="124.67" y="148">G</tspan></text><path stroke="#333" stroke-linejoin="round" stroke-width="8" d="M116 20.23V52h32"/></g></svg>