<svg xmlns="http://www.w3.org/2000/svg" viewBox="0 0 192 192" preserveAspectRatio="xMidYMid meet"><g fill="none" fill-rule="evenodd"><path stroke="#333" stroke-linejoin="round" stroke-width="8" d="M148 52l-32-32H56a12 12 0 00-12 12v128a12 12 0 0012 12h80a12 12 0 0012-12V52z"/><rect width="120" height="40" x="36" y="119" fill="#333" fill-rule="nonzero" rx="4"/><text fill="#FFF" font-family="Arial-BoldMT, Arial" font-size="24" font-weight="bold" letter-spacing="20"><tspan x="51.5" y="148">PD</tspan> <tspan x="124.84" y="148">F</tspan></text><path stroke="#333" stroke-linejoin="round" stroke-width="8" d="M116 20.23V52h32"/><path fill="#333" d="M102.4 85.63c1.18.95 2.52 1.8 4 2.66 2-.23 3.85-.33 5.57-.33 3.19 0 7.24.38 8.43 2.33.33.48.62 1.34.1 2.48-.06.05-.1.14-.15.2V93c-.14.86-.86 1.81-3.38 1.81-3.05 0-7.67-1.38-11.67-3.48a90.58 90.58 0 00-18.68 3.96c-4.9 8.38-8.66 12.48-11.52 12.48-.48 0-.9-.1-1.34-.34l-1.14-.57c-.14-.05-.19-.14-.28-.24-.24-.24-.43-.76-.3-1.71.49-2.2 3.06-5.86 8.96-8.96.39-.24.86-.1 1.1.29.05.05.1.14.1.19 1.47-2.43 3.19-5.53 5.1-9.38a72.97 72.97 0 004.95-12.48c-1.53-5.2-2-10.53-1.15-13.67.34-1.2 1.05-1.91 2-1.91h1.05c.72 0 1.29.24 1.67.71.57.67.71 1.72.43 3.24a.86.86 0 01-.2.38c.05.15.05.24.05.39v1.42c-.04 3-.1 5.86-.66 9.15 1.66 5 4.14 9.05 6.95 11.34zM74.94 105.2c1.43-.66 3.48-2.71 6.53-7.52-3.57 2.76-5.81 5.9-6.53 7.52zM93.9 61.38c-.47 1.34-.47 3.62-.1 6.29.15-.76.25-1.48.34-2.1.1-.8.24-1.47.33-2.04.05-.15.1-.24.2-.39-.05-.04-.05-.14-.1-.23a2.76 2.76 0 00-.62-1.72c0 .1-.05.14-.05.2zM88 92.87c4.19-1.67 8.86-3 13.52-3.86-.47-.38-.95-.72-1.38-1.1a25.36 25.36 0 01-6.05-8.38c-.9 2.9-2.24 6-3.95 9.38A284.1 284.1 0 0188 92.87zm30.77-.77c-.24-.23-1.48-1.14-6.67-1.14 2.33.86 4.48 1.34 5.9 1.34.43 0 .67 0 .86-.05 0-.05-.05-.1-.1-.15z"/></g></svg>