<svg xmlns="http://www.w3.org/2000/svg" viewBox="0 0 192 192" preserveAspectRatio="xMidYMid meet"><g fill="none" fill-rule="evenodd"><rect width="120" height="40" x="36" y="119" fill="#333" fill-rule="nonzero" rx="4"/><path stroke="#333" stroke-linejoin="round" stroke-width="8" d="M148 52l-32-32H56a12 12 0 00-12 12v128a12 12 0 0012 12h80a12 12 0 0012-12V52z"/><text fill="#FFF" font-family="Arial-BoldMT, Arial" font-size="24" font-weight="bold" letter-spacing="20"><tspan x="50" y="148">PN</tspan> <tspan x="123.34" y="148">G</tspan></text><path stroke="#333" stroke-linecap="round" stroke-linejoin="round" stroke-width="2" d="M68 101.83l14.82-24.71 18.12 18.11 6.59-6.58L124 105.12m-13.26-28.25a4.6 4.6 0 100-9.21 4.6 4.6 0 000 9.2zM71 59h50a3 3 0 013 3v50a3 3 0 01-3 3H71a3 3 0 01-3-3V62a3 3 0 013-3z"/><path stroke="#333" stroke-linejoin="round" stroke-width="8" d="M116 20.23V52h32"/></g></svg>