<svg xmlns="http://www.w3.org/2000/svg" viewBox="0 0 192 192" preserveAspectRatio="xMidYMid meet"><g fill="none" fill-rule="evenodd"><path stroke="#333" stroke-linejoin="round" stroke-width="8" d="M148 52l-32-32H56a12 12 0 00-12 12v128a12 12 0 0012 12h80a12 12 0 0012-12V52z"/><rect width="120" height="40" x="36" y="119" fill="#333" fill-rule="nonzero" rx="4"/><text fill="#FFF" font-family="Arial-BoldMT, Arial" font-size="24" font-weight="bold" letter-spacing="10"><tspan x="49.16" y="148">PPT</tspan> <tspan x="125.83" y="148">X</tspan></text><path stroke="#333" stroke-linejoin="round" stroke-width="8" d="M116 20.23V52h32"/><g fill-rule="nonzero"><path fill="#333" d="M54 99h35v8H54zm0-18h35v8H54zm0-18h35v8H54zm60 45a20 20 0 100-40 20 20 0 000 40z"/><path fill="#FFF" d="M114 88V68c6.67 0 11.67 2 15 6s5 8.67 5 14h-20z"/><path fill="#333" d="M116 85.96v-20c6.66 0 11.66 2 15 6 3.33 4 5 8.66 5 14h-20z"/></g></g></svg>