<svg xmlns="http://www.w3.org/2000/svg" viewBox="0 0 192 192" preserveAspectRatio="xMidYMid meet"><g fill="none" fill-rule="evenodd"><path stroke="#333" stroke-linejoin="round" stroke-width="8" d="M148 52l-32-32H56a12 12 0 00-12 12v128a12 12 0 0012 12h80a12 12 0 0012-12V52z"/><rect width="120" height="40" x="36" y="119" fill="#333" fill-rule="nonzero" rx="4"/><text fill="#FFF" font-family="Arial-BoldMT, Arial" font-size="24" font-weight="bold" letter-spacing="20"><tspan x="52.16" y="148">XL</tspan> <tspan x="122.83" y="148">S</tspan></text><path fill="#333" fill-rule="nonzero" d="M56 65h20v8H56zm30 0h20v8H86zm30 0h20v8h-20zM56 83h20v8H56zm30 0h20v8H86zm30 0h20v8h-20zm-60 18h20v8H56zm30 0h20v8H86zm30 0h20v8h-20z"/><path stroke="#333" stroke-linejoin="round" stroke-width="8" d="M116 20.23V52h32"/></g></svg>